# xmcd
#
# Track frame offsets: 
#        150
#        13177
#        25806
#        38776
#        49259
#        67698
#        81837
#        96616
#        104614
#        118834
#        126573
#        136905
#        140946
#        159487
#
# Disc length: 2313 seconds
#
# Revision: 0
# Processed by: cddbd v1.5.2PL0 Copyright (c) Steve Scherf et al.
# Submitted via: ExactAudioCopy v1.1
#
DISCID=ce09070e
DTITLE=Katastroof - 40 Jaar Katastroof - CD 3 - Het Leger Des Geils
DYEAR=2017
DGENRE=Folklore
TTITLE0=Kendeda
TTITLE1=Gedaan Met Ons Plezier
TTITLE2=God Dat Is Een Vrouw
TTITLE3=Hoe Meer
TTITLE4=Bloed Aan Mijn Handen
TTITLE5=De Doodgewoonste Dinges
TTITLE6=De Poort Nor Den Hemel
TTITLE7=Vrijgezellenfeest
TTITLE8=Zwaansdegana
TTITLE9=De Vier Seizoenen
TTITLE10=Samen Eén Front
TTITLE11=God (Naar Epicurus)
TTITLE12=Merci En Salu
TTITLE13=Rood En Wit (COYR)
EXTD=
EXTT0=
EXTT1=
EXTT2=
EXTT3=
EXTT4=
EXTT5=
EXTT6=
EXTT7=
EXTT8=
EXTT9=
EXTT10=
EXTT11=
EXTT12=
EXTT13=
PLAYORDER=
